<mxfile host="65bd71144e">
    <diagram id="wm8wza4mVTkUoEyjMs6Y" name="Page-1">
        <mxGraphModel dx="576" dy="1593" grid="1" gridSize="10" guides="1" tooltips="1" connect="1" arrows="1" fold="1" page="1" pageScale="1" pageWidth="827" pageHeight="1169" background="none" math="0" shadow="0">
            <root>
                <mxCell id="0"/>
                <mxCell id="1" parent="0"/>
                <mxCell id="2" value="Zoo" style="html=1;" parent="1" vertex="1">
                    <mxGeometry x="304" y="-50" width="110" height="50" as="geometry"/>
                </mxCell>
                <mxCell id="3" value="Stock" style="html=1;" parent="1" vertex="1">
                    <mxGeometry x="547" y="-50" width="110" height="50" as="geometry"/>
                </mxCell>
                <mxCell id="4" value="Cuidador" style="html=1;" parent="1" vertex="1">
                    <mxGeometry x="304" y="70" width="116" height="50" as="geometry"/>
                </mxCell>
                <mxCell id="5" value="Animal" style="html=1;" parent="1" vertex="1">
                    <mxGeometry x="90" y="-50" width="110" height="50" as="geometry"/>
                </mxCell>
                <mxCell id="6" value="Vacaciones" style="html=1;" parent="1" vertex="1">
                    <mxGeometry x="540" y="70" width="110" height="50" as="geometry"/>
                </mxCell>
                <mxCell id="7" value="Comida" style="html=1;" parent="1" vertex="1">
                    <mxGeometry x="547" y="-160" width="110" height="50" as="geometry"/>
                </mxCell>
                <mxCell id="8" value="Insectivoro" style="html=1;" parent="1" vertex="1">
                    <mxGeometry x="680" y="-330" width="110" height="50" as="geometry"/>
                </mxCell>
                <mxCell id="9" value="Herbivoro" style="html=1;" parent="1" vertex="1">
                    <mxGeometry x="417" y="-330" width="110" height="50" as="geometry"/>
                </mxCell>
                <mxCell id="10" value="Carnivoro" style="html=1;" parent="1" vertex="1">
                    <mxGeometry x="547" y="-330" width="110" height="50" as="geometry"/>
                </mxCell>
                <mxCell id="13" value="" style="endArrow=diamondThin;endFill=0;endSize=24;html=1;entryX=0.478;entryY=0.996;entryDx=0;entryDy=0;entryPerimeter=0;" parent="1" target="4" edge="1">
                    <mxGeometry width="160" relative="1" as="geometry">
                        <mxPoint x="145" as="sourcePoint"/>
                        <mxPoint x="360" y="120" as="targetPoint"/>
                        <Array as="points">
                            <mxPoint x="145" y="180"/>
                            <mxPoint x="359" y="180"/>
                        </Array>
                    </mxGeometry>
                </mxCell>
                <mxCell id="14" value="1..*" style="edgeLabel;html=1;align=center;verticalAlign=middle;resizable=0;points=[];" parent="13" vertex="1" connectable="0">
                    <mxGeometry x="0.6997" y="-3" relative="1" as="geometry">
                        <mxPoint x="18" y="-2" as="offset"/>
                    </mxGeometry>
                </mxCell>
                <mxCell id="16" value="1..*" style="edgeLabel;html=1;align=center;verticalAlign=middle;resizable=0;points=[];" parent="13" vertex="1" connectable="0">
                    <mxGeometry x="-0.723" y="-1" relative="1" as="geometry">
                        <mxPoint x="16" y="-39" as="offset"/>
                    </mxGeometry>
                </mxCell>
                <mxCell id="19" value="" style="endArrow=none;html=1;" parent="1" edge="1">
                    <mxGeometry width="50" height="50" relative="1" as="geometry">
                        <mxPoint x="358.55" y="70" as="sourcePoint"/>
                        <mxPoint x="358.55" as="targetPoint"/>
                    </mxGeometry>
                </mxCell>
                <mxCell id="23" value="" style="endArrow=diamondThin;endFill=0;endSize=24;html=1;entryX=0;entryY=0.5;entryDx=0;entryDy=0;exitX=1;exitY=0.5;exitDx=0;exitDy=0;" parent="1" source="5" target="2" edge="1">
                    <mxGeometry width="160" relative="1" as="geometry">
                        <mxPoint x="310" y="120" as="sourcePoint"/>
                        <mxPoint x="470" y="120" as="targetPoint"/>
                    </mxGeometry>
                </mxCell>
                <mxCell id="24" value="1" style="edgeLabel;html=1;align=center;verticalAlign=middle;resizable=0;points=[];" parent="23" vertex="1" connectable="0">
                    <mxGeometry x="0.7172" y="4" relative="1" as="geometry">
                        <mxPoint y="-11" as="offset"/>
                    </mxGeometry>
                </mxCell>
                <mxCell id="25" value="1..*" style="edgeLabel;html=1;align=center;verticalAlign=middle;resizable=0;points=[];" parent="23" vertex="1" connectable="0">
                    <mxGeometry x="-0.8078" y="-1" relative="1" as="geometry">
                        <mxPoint x="1" y="-16" as="offset"/>
                    </mxGeometry>
                </mxCell>
                <mxCell id="28" value="" style="endArrow=diamondThin;endFill=0;endSize=24;html=1;entryX=1;entryY=0.5;entryDx=0;entryDy=0;exitX=0;exitY=0.5;exitDx=0;exitDy=0;" parent="1" source="3" target="2" edge="1">
                    <mxGeometry width="160" relative="1" as="geometry">
                        <mxPoint x="210" y="-15" as="sourcePoint"/>
                        <mxPoint x="313.9999999999999" y="-15" as="targetPoint"/>
                    </mxGeometry>
                </mxCell>
                <mxCell id="29" value="1" style="edgeLabel;html=1;align=center;verticalAlign=middle;resizable=0;points=[];" parent="28" vertex="1" connectable="0">
                    <mxGeometry x="0.7172" y="4" relative="1" as="geometry">
                        <mxPoint y="-20" as="offset"/>
                    </mxGeometry>
                </mxCell>
                <mxCell id="30" value="1..*" style="edgeLabel;html=1;align=center;verticalAlign=middle;resizable=0;points=[];" parent="28" vertex="1" connectable="0">
                    <mxGeometry x="-0.8078" y="-1" relative="1" as="geometry">
                        <mxPoint x="-8" y="-13" as="offset"/>
                    </mxGeometry>
                </mxCell>
                <mxCell id="33" value="" style="endArrow=diamondThin;endFill=0;endSize=24;html=1;entryX=0.5;entryY=0;entryDx=0;entryDy=0;exitX=0;exitY=0.5;exitDx=0;exitDy=0;" parent="1" source="7" target="5" edge="1">
                    <mxGeometry width="160" relative="1" as="geometry">
                        <mxPoint x="210" y="-15" as="sourcePoint"/>
                        <mxPoint x="314" y="-15" as="targetPoint"/>
                        <Array as="points">
                            <mxPoint x="145" y="-135"/>
                        </Array>
                    </mxGeometry>
                </mxCell>
                <mxCell id="34" value="1" style="edgeLabel;html=1;align=center;verticalAlign=middle;resizable=0;points=[];" parent="33" vertex="1" connectable="0">
                    <mxGeometry x="0.7172" y="4" relative="1" as="geometry">
                        <mxPoint x="7" y="31" as="offset"/>
                    </mxGeometry>
                </mxCell>
                <mxCell id="35" value="1..*" style="edgeLabel;html=1;align=center;verticalAlign=middle;resizable=0;points=[];" parent="33" vertex="1" connectable="0">
                    <mxGeometry x="-0.8078" y="-1" relative="1" as="geometry">
                        <mxPoint x="1" y="-16" as="offset"/>
                    </mxGeometry>
                </mxCell>
                <mxCell id="36" value="" style="endArrow=open;endFill=1;endSize=12;html=1;entryX=0.5;entryY=1;entryDx=0;entryDy=0;" parent="1" edge="1">
                    <mxGeometry width="160" relative="1" as="geometry">
                        <mxPoint x="470" y="-280" as="sourcePoint"/>
                        <mxPoint x="601" y="-160" as="targetPoint"/>
                        <Array as="points">
                            <mxPoint x="470" y="-200"/>
                            <mxPoint x="601" y="-200"/>
                        </Array>
                    </mxGeometry>
                </mxCell>
                <mxCell id="37" value="" style="endArrow=open;endFill=1;endSize=12;html=1;exitX=0.5;exitY=1;exitDx=0;exitDy=0;" parent="1" source="8" edge="1">
                    <mxGeometry width="160" relative="1" as="geometry">
                        <mxPoint x="480" y="-270" as="sourcePoint"/>
                        <mxPoint x="600" y="-160" as="targetPoint"/>
                        <Array as="points">
                            <mxPoint x="735" y="-200"/>
                            <mxPoint x="600" y="-200"/>
                        </Array>
                    </mxGeometry>
                </mxCell>
                <mxCell id="38" value="" style="endArrow=open;endFill=1;endSize=12;html=1;" parent="1" edge="1">
                    <mxGeometry width="160" relative="1" as="geometry">
                        <mxPoint x="600" y="-280" as="sourcePoint"/>
                        <mxPoint x="600" y="-160" as="targetPoint"/>
                        <Array as="points">
                            <mxPoint x="600" y="-240"/>
                        </Array>
                    </mxGeometry>
                </mxCell>
                <mxCell id="39" value="" style="endArrow=none;html=1;entryX=0.5;entryY=1;entryDx=0;entryDy=0;exitX=0.5;exitY=0;exitDx=0;exitDy=0;" parent="1" source="3" target="7" edge="1">
                    <mxGeometry width="50" height="50" relative="1" as="geometry">
                        <mxPoint x="620" y="-40" as="sourcePoint"/>
                        <mxPoint x="670" y="-90" as="targetPoint"/>
                    </mxGeometry>
                </mxCell>
                <mxCell id="40" value="" style="endArrow=diamondThin;endFill=0;endSize=24;html=1;entryX=0;entryY=0.5;entryDx=0;entryDy=0;exitX=1;exitY=0.5;exitDx=0;exitDy=0;" parent="1" source="4" target="6" edge="1">
                    <mxGeometry width="160" relative="1" as="geometry">
                        <mxPoint x="557" y="-15" as="sourcePoint"/>
                        <mxPoint x="423.9999999999998" y="-15" as="targetPoint"/>
                    </mxGeometry>
                </mxCell>
                <mxCell id="41" value="1" style="edgeLabel;html=1;align=center;verticalAlign=middle;resizable=0;points=[];" parent="40" vertex="1" connectable="0">
                    <mxGeometry x="0.7172" y="4" relative="1" as="geometry">
                        <mxPoint y="-20" as="offset"/>
                    </mxGeometry>
                </mxCell>
                <mxCell id="42" value="0..*" style="edgeLabel;html=1;align=center;verticalAlign=middle;resizable=0;points=[];" parent="40" vertex="1" connectable="0">
                    <mxGeometry x="-0.8078" y="-1" relative="1" as="geometry">
                        <mxPoint x="-1" y="-13" as="offset"/>
                    </mxGeometry>
                </mxCell>
            </root>
        </mxGraphModel>
    </diagram>
</mxfile>
